HIERARCHY
ROOT joint_Root
{
	OFFSET 0.0 0.0 0.0
	CHANNELS 6 Xposition Yposition Zposition Zrotation Xrotation Yrotation 
	JOINT Hips
	{
		OFFSET -17.1583 93.1646 452.98
		CHANNELS 6 Xposition Yposition Zposition Zrotation Xrotation Yrotation 
		JOINT Spine
		{
			OFFSET 15.7357 0.0 0.0
			CHANNELS 6 Xposition Yposition Zposition Zrotation Xrotation Yrotation 
			JOINT Chest
			{
				OFFSET 8.98455 -0.406207 0.0
				CHANNELS 6 Xposition Yposition Zposition Zrotation Xrotation Yrotation 
				JOINT Neck
				{
					OFFSET 16.3773 0.0 0.0
					CHANNELS 6 Xposition Yposition Zposition Zrotation Xrotation Yrotation 
					JOINT Head
					{
						OFFSET 6.45672 0.0 0.0
						CHANNELS 6 Xposition Yposition Zposition Zrotation Xrotation Yrotation 
						End Site
						{
							OFFSET 0.0 0.0 0.0
						}
					}
				}
				JOINT Shoulder_L
				{
					OFFSET 12.9942 -0.242716 4.98039
					CHANNELS 6 Xposition Yposition Zposition Zrotation Xrotation Yrotation 
					JOINT UpperArm_L
					{
						OFFSET 5.34809 0.0 0.0
						CHANNELS 6 Xposition Yposition Zposition Zrotation Xrotation Yrotation 
						JOINT LowerArm_L
						{
							OFFSET 24.3286 1.87007e-05 0.0
							CHANNELS 6 Xposition Yposition Zposition Zrotation Xrotation Yrotation 
							JOINT Hand_L
							{
								OFFSET 22.2916 0.0 0.0
								CHANNELS 6 Xposition Yposition Zposition Zrotation Xrotation Yrotation 
								End Site
								{
									OFFSET 0.0 0.0 0.0
								}
							}
						}
					}
				}
				JOINT Shoulder_R
				{
					OFFSET 12.9945 -0.242716 -4.98039
					CHANNELS 6 Xposition Yposition Zposition Zrotation Xrotation Yrotation 
					JOINT UpperArm_R
					{
						OFFSET -5.34813 0.0 0.0
						CHANNELS 6 Xposition Yposition Zposition Zrotation Xrotation Yrotation 
						JOINT LowerArm_R
						{
							OFFSET -24.3289 0.000322201 0.0
							CHANNELS 6 Xposition Yposition Zposition Zrotation Xrotation Yrotation 
							JOINT Hand_R
							{
								OFFSET -22.2915 -0.000108084 0.0
								CHANNELS 6 Xposition Yposition Zposition Zrotation Xrotation Yrotation 
								End Site
								{
									OFFSET 0.0 0.0 0.0
								}
							}
						}
					}
				}
			}
		}
		JOINT UpperLeg_L
		{
			OFFSET -2.19248 -6.46944 0.0
			CHANNELS 6 Xposition Yposition Zposition Zrotation Xrotation Yrotation 
			JOINT LowerLeg_L
			{
				OFFSET 39.0811 0.0 -1.23785e-05
				CHANNELS 6 Xposition Yposition Zposition Zrotation Xrotation Yrotation 
				JOINT Foot_L
				{
					OFFSET 40.9854 0.0 -1.26872e-05
					CHANNELS 6 Xposition Yposition Zposition Zrotation Xrotation Yrotation 
					JOINT Toes_L
					{
						OFFSET 11.7543 0.0 0.0
						CHANNELS 6 Xposition Yposition Zposition Zrotation Xrotation Yrotation 
						End Site
						{
							OFFSET 0.0 0.0 0.0
						}
					}
				}
			}
		}
		JOINT UpperLeg_R
		{
			OFFSET -2.19251 6.46944 0.0
			CHANNELS 6 Xposition Yposition Zposition Zrotation Xrotation Yrotation 
			JOINT LowerLeg_R
			{
				OFFSET -39.0811 -0.00228153 -0.0401928
				CHANNELS 6 Xposition Yposition Zposition Zrotation Xrotation Yrotation 
				JOINT Foot_R
				{
					OFFSET -40.9854 0.0 0.0
					CHANNELS 6 Xposition Yposition Zposition Zrotation Xrotation Yrotation 
					JOINT Toes_R
					{
						OFFSET -11.7543 0.0 0.0
						CHANNELS 6 Xposition Yposition Zposition Zrotation Xrotation Yrotation 
						End Site
						{
							OFFSET 0.0 0.0 0.0
						}
					}
				}
			}
		}
	}
}
MOTION
Frames:	7
Frame Time:	0.0333333
0.000000 0.000000 0.000000 0.000000 0.000000 -0.000000 -3.613610 91.765600 -0.740548 84.930100 -0.080500 6.939560 15.735700 0.000005 -0.000001 89.920200 85.547700 -86.728000 8.984550 -0.406207 -0.000000 1.152130 -0.196420 6.381010 16.377300 -0.000001 -0.000001 12.758000 4.900410 -12.073600 6.456720 -0.000001 -0.000000 -2.846400 6.623760 -17.454400 12.994200 -0.242716 4.980390 -93.224500 8.587390 -69.328400 5.348090 -0.000007 -0.000001 -73.495400 -18.609000 -1.916890 24.328600 0.000019 0.000005 28.151400 -25.487600 -128.805000 22.291600 -0.000001 0.000005 52.642500 4.440790 17.569500 12.994500 -0.242716 -4.980390 87.417800 6.966640 -69.603800 -5.348130 -0.000001 -0.000004 -66.851800 29.477100 -6.481740 -24.328900 0.000322 -0.000009 1.097510 4.038420 -15.231600 -22.291500 -0.000108 -0.000004 -2.003100 5.312760 -0.288333 -2.192480 -6.469440 -0.000000 -174.160000 2.398690 -1.070550 39.081100 -0.000007 -0.000012 0.397057 -0.723534 28.757800 40.985400 -0.000006 -0.000013 0.224284 2.362960 -76.563200 11.754300 -0.000000 0.000003 -0.000739 0.179250 -9.305820 -2.192510 6.469440 -0.000001 -171.081000 9.315630 -174.741000 -39.081100 -0.002282 -0.040193 0.163237 -0.520062 17.092000 -40.985400 0.000008 0.000006 5.746550 0.454956 -71.436100 -11.754300 -0.000006 -0.000006 -0.008196 0.257290 -6.123850
0.000000 0.000000 0.000000 0.000000 0.000000 -0.000000 -3.630410 91.762000 -0.739175 84.919200 -0.035524 6.942940 15.735700 0.000005 -0.000001 89.867700 85.553900 -86.677500 8.984550 -0.406207 -0.000000 1.139830 -0.204778 6.377020 16.377300 -0.000001 -0.000001 12.748200 4.819510 -11.983600 6.456720 -0.000001 -0.000000 -2.851230 6.487340 -17.385200 12.994200 -0.242716 4.980390 -93.253900 8.683340 -69.364800 5.348090 -0.000007 -0.000001 -72.891100 -17.537800 -1.521090 24.328600 0.000019 0.000005 34.755800 -30.061400 -125.827000 22.291600 -0.000001 0.000005 54.325200 4.635570 14.299100 12.994500 -0.242716 -4.980390 87.404900 6.978670 -69.542500 -5.348130 -0.000001 -0.000004 -66.857600 29.540900 -6.453030 -24.328900 0.000322 -0.000009 1.093420 4.019550 -15.245200 -22.291500 -0.000108 -0.000004 -1.895710 5.311090 -0.240816 -2.192480 -6.469440 -0.000000 -174.154000 2.478800 -1.075910 39.081100 -0.000007 -0.000012 0.400365 -0.728859 28.781100 40.985400 -0.000006 -0.000013 0.212490 2.352150 -76.599600 11.754300 -0.000000 0.000003 -0.000507 0.175769 -9.447220 -2.192510 6.469440 -0.000001 -171.066000 9.343680 -174.760000 -39.081100 -0.002282 -0.040193 0.164355 -0.522753 17.121100 -40.985400 0.000008 0.000006 5.744540 0.431150 -71.478800 -11.754300 -0.000006 -0.000006 -0.008616 0.260654 -5.986410
0.000000 0.000000 0.000000 0.000000 0.000000 -0.000000 -3.645380 91.755100 -0.733933 84.918700 -0.004171 6.982160 15.735700 0.000005 -0.000001 89.754800 85.541500 -86.573100 8.984550 -0.406207 -0.000000 1.164940 -0.221207 6.360290 16.377300 -0.000001 -0.000001 12.705400 4.755580 -11.918000 6.456720 -0.000001 -0.000000 -2.872030 6.423280 -17.318400 12.994200 -0.242716 4.980390 -93.272700 8.711020 -69.315500 5.348090 -0.000007 -0.000001 -72.299000 -16.243300 -1.267220 24.328600 0.000019 0.000005 41.992900 -34.827400 -122.392000 22.291600 -0.000001 0.000005 55.591300 4.813210 11.067000 12.994500 -0.242716 -4.980390 87.398500 6.996490 -69.543800 -5.348130 -0.000001 -0.000004 -66.917100 29.338100 -6.443210 -24.328900 0.000322 -0.000009 1.118070 4.134710 -15.159500 -22.291500 -0.000108 -0.000004 -2.008620 5.313670 -0.314410 -2.192480 -6.469440 -0.000000 -174.156000 2.538720 -1.059430 39.081100 -0.000007 -0.000012 0.400403 -0.727881 28.815900 40.985400 -0.000006 -0.000013 0.197236 2.322820 -76.595100 11.754300 -0.000000 0.000003 -0.000361 0.173492 -9.539740 -2.192510 6.469440 -0.000001 -171.040000 9.288430 -174.715000 -39.081100 -0.002282 -0.040193 0.165080 -0.524917 17.126900 -40.985400 0.000008 0.000006 5.752990 0.369913 -71.463500 -11.754300 -0.000006 -0.000006 -0.008422 0.259114 -6.049330
0.000000 0.000000 0.000000 0.000000 0.000000 -0.000000 -3.656870 91.751900 -0.734596 84.896200 0.029466 6.968010 15.735700 0.000005 -0.000001 89.801900 85.547400 -86.611600 8.984550 -0.406207 -0.000000 1.153150 -0.214665 6.377290 16.377300 -0.000001 -0.000001 12.711500 4.700960 -11.931400 6.456720 -0.000001 -0.000000 -2.916780 6.340310 -17.307000 12.994200 -0.242716 4.980390 -93.280300 8.738310 -69.330500 5.348090 -0.000007 -0.000001 -71.779000 -15.109000 -1.235570 24.328600 0.000019 0.000005 47.459600 -38.446700 -119.708000 22.291600 -0.000001 0.000005 56.243700 4.946730 8.431250 12.994500 -0.242716 -4.980390 87.399300 6.985810 -69.520900 -5.348130 -0.000001 -0.000004 -66.947400 29.343700 -6.404710 -24.328900 0.000322 -0.000009 1.114210 4.108010 -15.203000 -22.291500 -0.000108 -0.000004 -1.972860 5.310850 -0.233821 -2.192480 -6.469440 -0.000000 -174.127000 2.571870 -1.116280 39.081100 -0.000007 -0.000012 0.398818 -0.723747 28.857800 40.985400 -0.000006 -0.000013 0.173830 2.282570 -76.572600 11.754300 -0.000000 0.000003 -0.000446 0.174815 -9.485990 -2.192510 6.469440 -0.000001 -171.001000 9.317630 -174.740000 -39.081100 -0.002282 -0.040193 0.166818 -0.530437 17.130600 -40.985400 0.000008 0.000006 5.757860 0.337994 -71.494300 -11.754300 -0.000006 -0.000006 -0.008405 0.258973 -6.055070
0.000000 0.000000 0.000000 0.000000 0.000000 -0.000000 -3.678320 91.752400 -0.755650 84.878000 0.071307 6.948040 15.735700 0.000005 -0.000001 89.681200 85.551700 -86.462100 8.984550 -0.406207 -0.000000 1.145200 -0.235243 6.435150 16.377300 -0.000001 -0.000001 12.704800 4.727920 -12.034500 6.456720 -0.000001 -0.000000 -2.906640 6.315650 -17.393200 12.994200 -0.242716 4.980390 -93.273600 8.762840 -69.421900 5.348090 -0.000007 -0.000001 -71.500100 -14.458500 -1.378690 24.328600 0.000019 0.000005 50.255100 -40.371100 -118.308000 22.291600 -0.000001 0.000005 56.830200 5.042290 6.406540 12.994500 -0.242716 -4.980390 87.399100 6.978000 -69.498900 -5.348130 -0.000001 -0.000004 -66.922800 29.352600 -6.450770 -24.328900 0.000322 -0.000009 1.096480 4.042930 -15.201700 -22.291500 -0.000108 -0.000004 -1.965260 5.312350 -0.276633 -2.192480 -6.469440 -0.000000 -174.101000 2.607840 -1.154180 39.081100 -0.000007 -0.000012 0.403903 -0.732119 28.886100 40.985400 -0.000006 -0.000013 0.169875 2.323660 -76.675400 11.754300 -0.000000 0.000003 -0.000710 0.178818 -9.323350 -2.192510 6.469440 -0.000001 -171.007000 9.483150 -174.766000 -39.081100 -0.002282 -0.040193 0.164771 -0.524353 17.113400 -40.985400 0.000008 0.000006 5.788610 0.469031 -71.474300 -11.754300 -0.000006 -0.000006 -0.008275 0.257927 -6.097810
0.000000 0.000000 0.000000 0.000000 0.000000 -0.000000 -3.680770 91.747800 -0.737551 84.897900 0.102991 6.978960 15.735700 0.000005 -0.000001 89.359900 85.532800 -86.113000 8.984550 -0.406207 -0.000000 1.184250 -0.286029 6.491360 16.377300 -0.000001 -0.000001 12.728700 4.741810 -12.162900 6.456720 -0.000001 -0.000000 -2.926290 6.383510 -17.534900 12.994200 -0.242716 4.980390 -93.278800 8.773180 -69.413500 5.348090 -0.000007 -0.000001 -71.541600 -14.475300 -1.745970 24.328600 0.000019 0.000005 50.803800 -40.811700 -118.056000 22.291600 -0.000001 0.000005 57.130400 5.018590 6.921370 12.994500 -0.242716 -4.980390 87.399000 6.973660 -69.486800 -5.348130 -0.000001 -0.000004 -66.846700 29.430700 -6.559460 -24.328900 0.000322 -0.000009 1.091040 4.021410 -15.207000 -22.291500 -0.000108 -0.000004 -1.971190 5.311990 -0.266397 -2.192480 -6.469440 -0.000000 -174.115000 2.605380 -1.131230 39.081100 -0.000007 -0.000012 0.399861 -0.724969 28.880200 40.985400 -0.000006 -0.000013 0.169777 2.321840 -76.562000 11.754300 -0.000000 0.000003 -0.000367 0.173597 -9.535480 -2.192510 6.469440 -0.000001 -171.015000 9.450930 -174.741000 -39.081100 -0.002282 -0.040193 0.165609 -0.526287 17.137600 -40.985400 0.000008 0.000006 5.785190 0.408853 -71.469000 -11.754300 -0.000006 -0.000006 -0.008372 0.258711 -6.065790
0.000000 0.000000 0.000000 0.000000 0.000000 -0.000000 -3.700280 91.752000 -0.748881 84.906700 0.138082 6.971380 15.735700 0.000005 -0.000001 89.138800 85.537300 -85.873600 8.984550 -0.406207 -0.000000 1.175860 -0.321631 6.528280 16.377300 -0.000001 -0.000001 12.806200 4.746910 -12.226800 6.456720 -0.000001 -0.000000 -2.956350 6.425830 -17.596100 12.994200 -0.242716 4.980390 -93.257400 8.695080 -69.369900 5.348090 -0.000007 -0.000001 -72.063700 -15.136900 -2.285650 24.328600 0.000019 0.000005 48.497700 -39.438100 -119.339000 22.291600 -0.000001 0.000005 56.451300 4.913390 9.110520 12.994500 -0.242716 -4.980390 87.383000 7.006740 -69.459200 -5.348130 -0.000001 -0.000004 -66.779300 29.512800 -6.630990 -24.328900 0.000322 -0.000009 1.067760 3.937900 -15.198200 -22.291500 -0.000108 -0.000004 -1.939410 5.313810 -0.318324 -2.192480 -6.469440 -0.000000 -174.113000 2.589770 -1.125810 39.081100 -0.000007 -0.000012 0.407440 -0.739253 28.862400 40.985400 -0.000006 -0.000013 0.175102 2.384760 -76.639300 11.754300 -0.000000 0.000003 -0.000477 0.175300 -9.466310 -2.192510 6.469440 -0.000001 -171.030000 9.538520 -174.734000 -39.081100 -0.002282 -0.040193 0.164180 -0.522546 17.110000 -40.985400 0.000008 0.000006 5.796400 0.443598 -71.517500 -11.754300 -0.000006 -0.000006 -0.008942 0.263220 -5.881540
